<?xml version="1.0" standalone="no"?>
<!DOCTYPE svg PUBLIC "-//W3C//DTD SVG 20010904//EN"
 "http://www.w3.org/TR/2001/REC-SVG-20010904/DTD/svg10.dtd">
<svg version="1.0" xmlns="http://www.w3.org/2000/svg"
 width="1280.000000pt" height="1235.000000pt" viewBox="0 0 1280.000000 1235.000000"
 preserveAspectRatio="xMidYMid meet">
<g transform="translate(0.000000,1235.000000) scale(0.100000,-0.100000)"
fill="#000000" stroke="none">
<path d="M5599 12335 c-653 -42 -1111 -126 -1634 -300 -831 -276 -1548 -724
-2203 -1374 -909 -904 -1467 -1980 -1667 -3216 -42 -256 -71 -566 -91 -970
-10 -204 25 -718 72 -1045 201 -1410 886 -2629 2024 -3605 852 -731 1862
-1176 2995 -1319 474 -61 1148 -63 1658 -6 546 61 1088 192 1557 377 166 65
502 224 639 302 41 23 82 41 91 39 9 -2 209 -201 445 -443 235 -242 502 -515
593 -608 l166 -167 48 0 c27 0 59 6 71 14 12 8 565 258 1230 556 l1207 543 0
96 c-1 93 -2 97 -28 116 -38 27 -1854 1598 -1870 1617 -10 13 -7 24 21 64 116
171 279 456 393 687 528 1074 721 2187 594 3418 -137 1326 -645 2461 -1527
3409 -863 928 -1947 1506 -3226 1720 -291 48 -382 58 -943 100 -174 12 -360
11 -615 -5z m599 -2945 c329 -30 608 -108 907 -254 385 -189 728 -476 1021
-856 525 -680 743 -1543 618 -2447 -37 -272 -154 -699 -189 -691 -7 2 -199
185 -425 407 l-412 405 -1205 -602 c-662 -332 -1203 -606 -1201 -611 2 -4 301
-288 666 -631 365 -342 661 -627 659 -634 -2 -6 -44 -20 -93 -32 -342 -82
-786 -85 -1133 -8 -544 119 -1033 427 -1448 909 -408 473 -652 973 -742 1520
-163 979 164 1947 919 2729 322 333 644 546 1027 679 181 63 317 92 568 121
66 7 366 5 463 -4z"/>
</g>
</svg>
